# AST/ASF file generated using VICON BodyLanguage
# -----------------------------------------------
:version 1.10
:name VICON
:units
  mass 1.0
  length 0.45
  angle deg
:documentation
   .ast/.asf automatically generated from VICON data using
   VICON BodyBuilder and BodyLanguage model FoxedUp or BRILLIANT.MOD
:root
   order TX TY TZ RX RY RZ
   axis XYZ
   position 0 0 0  
   orientation 0 0 0 
:bonedata
  begin
     id 1 
     name lhipjoint
     direction 0.570549 -0.739093 0.358072 
     length 2.41801 
     axis 0 0 0  XYZ
  end
  begin
     id 2 
     name lfemur
     direction 0.34202 -0.939693 0  
     length 7.44434  
     axis 0 0 20  XYZ
    dof rx ry rz
    limits (-160.0 20.0)
           (-70.0 70.0)
           (-60.0 70.0)
  end
  begin
     id 3 
     name ltibia
     direction 0.34202 -0.939693 0   
     length 7.60047   
     axis 0 0 20   XYZ
    dof rx
    limits (-10.0 170.0)
  end
  begin
     id 4 
     name lfoot
     direction 0.0909041 -0.249757 0.964032   
     length 2.03437   
     axis -90 7.62852e-016 20   XYZ
    dof rx rz
    limits (-45.0 90.0)
           (-70.0 20.0)
  end
  begin
     id 5 
     name ltoes
     direction 1.53547e-011 -4.2174e-011 1   
     length 1.02054   
     axis -90 7.62852e-016 20   XYZ
    dof rx
    limits (-90.0 20.0)
  end
  begin
     id 6 
     name rhipjoint
     direction -0.558096 -0.746754 0.361784   
     length 2.3932  
     axis 0 0 0  XYZ 
  end
  begin
     id 7 
     name rfemur
     direction -0.34202 -0.939693 0   
     length 7.3886   
     axis 0 0 -20   XYZ
    dof rx ry rz
    limits (-160.0 20.0)
           (-70.0 70.0)
           (-70.0 60.0)
  end
  begin
     id 8 
     name rtibia
     direction -0.34202 -0.939693 0   
     length 7.4839   
     axis 0 0 -20   XYZ
    dof rx
    limits (-10.0 170.0)
 end
 begin
     id 9 
     name rfoot
     direction -0.114619 -0.314914 0.942174   
     length 2.25127  
     axis -90 -7.62852e-016 -20   XYZ
    dof rx rz
    limits (-45.0 90.0)
           (-20.0 70.0)
  end
  begin
     id 10 
     name rtoes
     direction -1.53518e-011 -4.21881e-011 1   
     length 1.11821   
     axis -90 -7.62852e-016 -20   XYZ
    dof rx
    limits (-90.0 20.0)
  end
  begin
     id 11 
     name lowerback
     direction -0.00902269 0.996426 -0.0839821   
     length 2.25052   
     axis 0 0 0   XYZ
    dof rx ry rz
    limits (-20.0 45.0)
           (-30.0 30.0)
           (-30.0 30.0)
  end
  begin
     id 12 
     name upperback
     direction 0.0370973 0.999169 -0.0168941   
     length 2.24876   
     axis 0 0 0   XYZ
    dof rx ry rz
    limits (-20.0 45.0)
           (-30.0 30.0)
           (-30.0 30.0)
  end
  begin
     id 13 
     name thorax
     direction 0.0402726 0.998931 0.0227027   
     length 2.26408   
     axis 0 0 0   XYZ
    dof rx ry rz
    limits (-20.0 45.0)
           (-30.0 30.0)
           (-30.0 30.0)
  end
  begin
     id 14 
     name lowerneck
     direction -0.0733697 0.98508 0.155675   
     length 1.58204   
     axis 0 0 0   XYZ
    dof rx ry rz
    limits (-20.0 45.0)
           (-30.0 30.0)
           (-30.0 30.0)
  end
  begin
     id 15 
     name upperneck
     direction 0.0426554 0.993501 -0.105526   
     length 1.61222   
     axis 0 0 0   XYZ
    dof rx ry rz
    limits (-20.0 45.0)
           (-30.0 30.0)
           (-30.0 30.0)
  end
  begin
     id 16
     name head
     direction 0.020792 0.998384 -0.0528868  
     length 1.61527  
     axis 0 0 0   XYZ
    dof rx ry rz
    limits (-20.0 45.0)
           (-30.0 30.0)
           (-30.0 30.0)
  end
  begin
     id 17 
     name lclavicle
     direction 0.967109 0.155462 -0.201325  
     length 3.59357  
     axis 0 0 0   XYZ
    dof ry rz
    limits (-20.0 10.0)
           (0.0 20.0)
  end
  begin
     id 18 
     name lhumerus
     direction 1 -4.48968e-011 2.38195e-027   
     length 5.38154   
     axis 180 -30 -90   XYZ
    dof rx ry rz
    limits (-60.0 90.0)
           (-90.0 90.0)
           (-90.0 90.0)
  end
  begin
     id 19
     name lradius
     direction 1 -4.48961e-011 4.85371e-027   
     length 3.33312   
     axis 180 -30 -90   XYZ
    dof rx
    limits (-10.0 170.0)
  end
  begin
     id 20
     name lwrist
     direction 1 -4.48961e-011 4.76515e-027   
     length 1.66656   
     axis -3.27502e-015 90 90   XYZ
    dof ry
    limits (-180.0 0.0)
 end
  begin
     id 21 
     name lhand
     direction 1 -4.48951e-011 9.53074e-027   
     length 0.710789   
     axis -6.08098e-015 90 90   XYZ
    dof rx rz
    limits (-90.0 90.0)
           (-45.0 45.0)
  end
  begin
     id 22 
     name lfingers
     direction 1 -4.48953e-011 1.90613e-026   
     length 0.573057   
     axis -1.21619e-014 90 90   XYZ
    dof rx
    limits (0.0 90.0)
  end
  begin
     id 23
     name lthumb
     direction 0.707107 -6.34973e-011 0.707107   
     length 0.822798   
     axis -90 45 -9.86923e-015   XYZ
    dof rx rz
    limits (-45.0 45.0)
           (-45.0 45.0)
  end
  begin
     id 24 
     name rclavicle
     direction -0.9585 0.265289 -0.104398   
     length 3.42039  
     axis 0 0 0   XYZ 
    dof ry rz
    limits (-10.0 20.0)
           (-20.0 0.0)
  end
  begin
     id 25 
     name rhumerus
     direction -1 -4.48977e-011 2.21478e-027  
     length 5.16954   
     axis 180 30 90   XYZ
    dof rx ry rz
    limits (-90.0 60.0)
           (-90.0 90.0)
           (-90.0 90.0)
  end
  begin
     id 26 
     name rradius
     direction -1 -4.48967e-011 5.63677e-027   
     length 3.38287   
     axis 180 30 90   XYZ
    dof rx
    limits (-10.0 170.0)
  end
  begin
     id 27 
     name rwrist
     direction -1 -4.48967e-011 4.76501e-027   
     length 1.69144   
     axis -3.27502e-015 -90 -90   XYZ
    dof ry
    limits (-180.0 0.0)
  end
  begin
     id 28
     name rhand
     direction -1 -4.48902e-011 9.53292e-027   
     length 0.817967   
     axis -6.08098e-015 -90 -90   XYZ
    dof rx rz
    limits (-90.0 90.0)
           (-45.0 45.0)
  end
  begin
     id 29
     name rfingers
     direction -1 -4.49012e-011 1.90561e-026   
     length 0.659466   
     axis -1.21619e-014 -90 -90   XYZ
    dof rx
    limits (0.0 90.0)
  end
  begin
     id 30
     name rthumb
     direction -0.707107 -6.34944e-011 0.707107   
     length 0.946865   
     axis -90 -45 9.86923e-015   XYZ
    dof rx rz
    limits (-45.0 45.0)
           (-45.0 45.0)
  end
:hierarchy
  begin
    root lhipjoint rhipjoint lowerback
    lhipjoint lfemur
    lfemur ltibia
    ltibia lfoot
    lfoot ltoes
    rhipjoint rfemur
    rfemur rtibia
    rtibia rfoot
    rfoot rtoes
    lowerback upperback
    upperback thorax
    thorax lowerneck lclavicle rclavicle
    lowerneck upperneck
    upperneck head
    lclavicle lhumerus
    lhumerus lradius
    lradius lwrist
    lwrist lhand lthumb
    lhand lfingers
    rclavicle rhumerus
    rhumerus rradius
    rradius rwrist
    rwrist rhand rthumb
    rhand rfingers
  end

#!OML:ASF F:\twosubjects\two\wednesday\Session 1\Justin1.ASF
:FULLY-SPECIFIED
:DEGREES
155
root -4.92173 17.7523 2.6622 -174.959 -16.9888 -176.761
lowerback 4.47523 -0.292055 -1.95105
upperback -2.55021 -0.455938 2.61407
thorax -5.1237 -0.134571 3.85928
lowerneck -7.37415 -9.09752 -13.1192
upperneck 16.7745 -12.51 6.98816
head 7.64127 -6.45774 3.16918
rclavicle 3.43028e-014 5.96354e-016
rhumerus 57.4235 -28.233 -35.2299
rradius 68.7978
rwrist -1.23957
rhand 7.28167 30.3113
rfingers 7.12502
rthumb 32.5438 3.21588
lclavicle 3.43028e-014 5.96354e-016
lhumerus -49.5796 26.0007 57.0072
lradius 22.759
lwrist -13.187
lhand -3.29546 37.0855
lfingers 7.12502
lthumb 22.4304 65.803
rfemur -11.3629 -5.90656 33.1614
rtibia 23.2943
rfoot -12.2348 0.251359
rtoes 18.1959
lfemur -15.8256 -2.52204 -9.07809
ltibia 56.5454
lfoot -5.42415 -9.74984
ltoes -10.9636
156
root -4.95126 17.7365 2.54332 -175.043 -16.2233 -176.693
lowerback 4.29536 -0.0764354 -1.66326
upperback -2.44548 -0.151379 2.44397
thorax -4.93562 0.00124883 3.48808
lowerneck -7.1913 -9.15549 -12.9104
upperneck 16.6268 -12.6633 7.13474
head 7.5715 -6.51169 3.17706
rclavicle -1.42939e-014 1.78906e-015
rhumerus 55.8735 -26.5615 -32.3667
rradius 68.7051
rwrist -1.46952
rhand 6.03439 30.377
rfingers 7.12502
rthumb 31.3561 3.04398
lclavicle -1.42939e-014 1.78906e-015
lhumerus -49.3539 26.8875 56.3748
lradius 22.1016
lwrist -14.8091
lhand -3.19905 37.178
lfingers 7.12502
lthumb 22.5229 65.8844
rfemur -10.7755 -5.85927 33.148
rtibia 23.3273
rfoot -12.4824 0.841168
rtoes 21.185
lfemur -16.6624 -2.34824 -9.09891
ltibia 56.4109
lfoot -6.95022 -9.25048
ltoes -16.3923
157
root -4.98312 17.7306 2.41719 -175.074 -15.3908 -176.996
lowerback 4.13669 0.181043 -1.67148
upperback -2.33208 0.189829 2.136
thorax -4.74942 0.166205 3.14013
lowerneck -7.06926 -9.34972 -12.5084
upperneck 16.5508 -12.9742 6.98894
head 7.51997 -6.65042 3.03786
rclavicle -3.8763e-015 1.0138e-014
rhumerus 54.4363 -24.8042 -29.852
rradius 68.7598
rwrist -1.5742
rhand 4.77665 30.3954
rfingers 7.12502
rthumb 30.1569 2.83669
lclavicle -3.8763e-015 1.0138e-014
lhumerus -48.8973 26.644 56.5131
lradius 21.7638
lwrist -15.1173
lhand -2.85219 37.3727
lfingers 7.12502
lthumb 22.8558 66.0384
rfemur -10.0559 -5.89274 32.691
rtibia 23.4053
rfoot -12.643 1.63373
rtoes 24.6009
lfemur -17.3177 -2.28751 -9.56673
ltibia 56.1403
lfoot -8.39075 -8.34055
ltoes -14.8484
158
root -5.00999 17.7165 2.30329 -175.154 -14.4205 -176.835
lowerback 3.98879 0.408228 -1.34672
upperback -2.32259 0.509569 2.03593
thorax -4.67187 0.31171 2.82629
lowerneck -7.07834 -9.38565 -12.9567
upperneck 17.0255 -13.1397 7.46162
head 7.75779 -6.73725 3.23006
rclavicle 5.62809e-015 8.15017e-015
rhumerus 53.2911 -22.696 -27.7095
rradius 69.0116
rwrist -1.79942
rhand 3.37525 30.2417
rfingers 7.12502
rthumb 28.8191 2.44698
lclavicle 5.62809e-015 8.15017e-015
lhumerus -48.8495 26.288 56.6771
lradius 21.6202
lwrist -15.0698
lhand -2.93041 37.6267
lfingers 7.12502
lthumb 22.7807 66.3016
rfemur -9.48872 -5.58443 32.7735
rtibia 23.5091
rfoot -12.8621 2.09977
rtoes 25.6103
lfemur -18.1064 -2.11597 -9.48551
ltibia 55.8266
lfoot -9.4044 -7.45648
ltoes -12.5522
159
root -5.03671 17.6959 2.1936 -175.187 -13.5358 -176.607
lowerback 3.83241 0.54367 -1.03182
upperback -2.34187 0.705767 2.01873
thorax -4.60991 0.397021 2.61581
lowerneck -7.5105 -9.44796 -13.3136
upperneck 17.7577 -13.2734 7.68591
head 8.1326 -6.81117 3.30867
rclavicle 4.52981e-014 2.52457e-014
rhumerus 52.5378 -20.4517 -25.9741
rradius 69.3349
rwrist -2.36419
rhand 1.69298 29.7088
rfingers 7.12502
rthumb 27.2109 1.65123
lclavicle 4.52981e-014 2.52457e-014
lhumerus -48.9267 26.6316 56.469
lradius 21.3632
lwrist -15.6348
lhand -3.16523 37.4645
lfingers 7.12502
lthumb 22.5554 66.1669
rfemur -9.00768 -5.13199 32.9731
rtibia 23.5228
rfoot -13.1044 2.26726
rtoes 25.0419
lfemur -19.0387 -2.01223 -9.29395
ltibia 55.4869
lfoot -10.0509 -6.72053
ltoes -11.5696
160
root -5.06271 17.6816 2.08014 -175.104 -12.6006 -176.448
lowerback 3.58274 0.716673 -0.745311
upperback -2.2766 0.948953 1.92712
thorax -4.40603 0.505505 2.34219
lowerneck -7.94086 -9.59949 -12.9124
upperneck 17.9606 -13.4208 7.31181
head 8.23839 -6.8712 3.08166
rclavicle -2.33914e-014 -9.14409e-015
rhumerus 51.9692 -18.4244 -24.5148
rradius 69.5601
rwrist -3.18733
rhand -0.266705 29.1092
rfingers 7.12502
rthumb 25.3349 0.771941
lclavicle -2.33914e-014 -9.14409e-015
lhumerus -48.6733 27.4351 56.0994
lradius 20.947
lwrist -16.6332
lhand -3.23373 36.8067
lfingers 7.12502
lthumb 22.4896 65.5171
rfemur -8.52557 -4.93764 33.0914
rtibia 23.3888
rfoot -13.2095 2.80238
rtoes 23.9904
lfemur -20.0786 -1.8318 -9.18369
ltibia 55.1255
lfoot -10.8528 -6.05336
ltoes -13.2733
161
root -5.08922 17.6721 1.96399 -175.08 -11.5419 -176.086
lowerback 3.30644 0.957919 -0.229036
upperback -2.27815 1.2911 1.86169
thorax -4.25297 0.656637 1.96242
lowerneck -6.61437 -9.45998 -12.8585
upperneck 16.7906 -13.395 7.83414
head 7.64395 -6.84484 3.32997
rclavicle -5.99227e-015 1.81391e-014
rhumerus 51.3938 -16.2209 -23.2531
rradius 69.7558
rwrist -4.04315
rhand -2.33695 28.5982
rfingers 7.12502
rthumb 23.3502 -0.0055563
lclavicle -5.99227e-015 1.81391e-014
lhumerus -48.5658 27.5274 56.1232
lradius 20.8451
lwrist -16.7375
lhand -3.55029 36.6293
lfingers 7.12502
lthumb 22.1858 65.3762
rfemur -7.9222 -4.98037 33.3816
rtibia 23.1803
rfoot -13.4408 3.60915
rtoes 22.7348
lfemur -20.9897 -1.59936 -8.85429
ltibia 54.7097
lfoot -11.9651 -5.47273
ltoes -15.1474
162
root -5.11832 17.6617 1.85036 -175.156 -10.4737 -175.813
lowerback 3.30937 1.22541 0.149713
upperback -2.43676 1.66313 1.8355
thorax -4.42129 0.827899 1.69538
lowerneck -5.02704 -9.21733 -13.4067
upperneck 15.9818 -13.3715 8.89474
head 7.20863 -6.8506 3.84804
rclavicle -2.43031e-014 3.44301e-015
rhumerus 50.7471 -13.7165 -22.0972
rradius 70.0966
rwrist -4.72655
rhand -4.29272 27.9882
rfingers 7.12502
rthumb 21.4728 -0.841666
lclavicle -2.43031e-014 3.44301e-015
lhumerus -48.6731 26.8921 56.632
lradius 21.0893
lwrist -16.1582
lhand -3.83873 37.4341
lfingers 7.12502
lthumb 21.9088 66.2136
rfemur -7.1794 -4.81628 33.5328
rtibia 22.952
rfoot -13.3751 4.26582
rtoes 22.6923
lfemur -21.7369 -1.52467 -8.63227
ltibia 54.1424
lfoot -12.767 -4.9536
ltoes -15.5481
163
root -5.14916 17.6525 1.74317 -175.077 -9.57264 -175.864
lowerback 3.24026 1.41089 0.27008
upperback -2.50971 1.91251 1.70332
thorax -4.45652 0.946165 1.47411
lowerneck -4.89035 -9.23713 -13.6378
upperneck 16.2334 -13.5314 9.26448
head 7.32634 -6.93502 3.98752
rclavicle 5.75357e-014 2.41026e-014
rhumerus 50.3751 -11.4037 -21.373
rradius 70.459
rwrist -5.35136
rhand -6.21389 27.4226
rfingers 7.12502
rthumb 19.6267 -1.60669
lclavicle 5.75357e-014 2.41026e-014
lhumerus -48.5265 26.9724 56.8616
lradius 21.2277
lwrist -16.3167
lhand -3.63339 38.1051
lfingers 7.12502
lthumb 22.106 66.8615
rfemur -6.59973 -4.53229 33.3377
rtibia 22.7046
rfoot -13.0616 4.78588
rtoes 23.3665
lfemur -22.6593 -1.62873 -8.76854
ltibia 53.4285
lfoot -13.2439 -4.3347
ltoes -15.5713
164
root -5.17792 17.6555 1.63311 -174.87 -8.76272 -176.182
lowerback 3.0178 1.513 0.212894
upperback -2.51226 2.0386 1.4356
thorax -4.32768 1.00876 1.22606
lowerneck -4.50079 -9.17625 -13.5633
upperneck 16.0544 -13.5221 9.36166
head 7.19938 -6.93725 4.03016
rclavicle 5.99305e-015 1.80397e-014
rhumerus 50.3249 -9.12255 -21.1828
rradius 70.7364
rwrist -6.18806
rhand -8.36409 27.0518
rfingers 7.12502
rthumb 17.5585 -2.17533
lclavicle 5.99305e-015 1.80397e-014
lhumerus -48.3218 27.5658 56.6858
lradius 21.2357
lwrist -16.8294
lhand -3.20565 38.2697
lfingers 7.12502
lthumb 22.5166 66.9769
rfemur -6.12527 -4.29625 32.8619
rtibia 22.513
rfoot -13.159 5.16363
rtoes 22.962
lfemur -23.5922 -1.88738 -9.182
ltibia 52.5776
lfoot -13.747 -3.69917
ltoes -16.0799
165
root -5.19338 17.6565 1.52817 -174.732 -8.05217 -176.23
lowerback 3.02946 1.60423 0.237135
upperback -2.54815 2.15972 1.35602
thorax -4.37011 1.06713 1.12126
lowerneck -4.35035 -9.1317 -13.5914
upperneck 15.9284 -13.4724 9.40203
head 7.13085 -6.91709 4.06223
rclavicle 3.54706e-014 1.13307e-014
rhumerus 50.3968 -6.77833 -20.9986
rradius 70.9749
rwrist -6.98323
rhand -10.5128 26.7411
rfingers 7.12502
rthumb 15.4898 -2.65841
lclavicle 3.54706e-014 1.13307e-014
lhumerus -48.0187 27.5586 57.2353
lradius 21.4485
lwrist -16.4783
lhand -3.1431 38.5723
lfingers 7.12502
lthumb 22.5766 67.2722
rfemur -5.69559 -4.00431 32.7608
rtibia 22.335
rfoot -13.4179 5.27887
rtoes 22.3038
lfemur -24.5477 -2.21328 -9.20208
ltibia 51.6544
lfoot -14.0996 -3.16831
ltoes -16.2489
166
root -5.20715 17.6453 1.43223 -174.573 -7.54383 -175.947
lowerback 3.04129 1.68267 0.443727
upperback -2.58024 2.27476 1.49789
thorax -4.41038 1.11744 1.14363
lowerneck -4.39397 -9.21577 -13.7016
upperneck 15.932 -13.5591 9.338
head 7.15434 -6.96526 4.04539
rclavicle 4.55962e-015 -7.25564e-015
rhumerus 50.477 -4.51969 -20.5598
rradius 71.1155
rwrist -7.66727
rhand -12.4748 26.4583
rfingers 7.12502
rthumb 13.5994 -3.07749
lclavicle 4.55962e-015 -7.25564e-015
lhumerus -47.5082 27.1984 58.4596
lradius 21.8052
lwrist -15.5654
lhand -3.33346 38.7751
lfingers 7.12502
lthumb 22.3939 67.497
rfemur -5.36008 -3.84087 33.0344
rtibia 21.9874
rfoot -13.5057 5.45796
rtoes 22.8654
lfemur -25.6514 -2.60095 -8.78357
ltibia 50.67
lfoot -14.2474 -2.6074
ltoes -16.0573
167
root -5.23026 17.639 1.33266 -174.417 -6.77514 -175.579
lowerback 2.9592 1.85895 0.85251
upperback -2.59448 2.52571 1.56851
thorax -4.36878 1.22773 0.973493
lowerneck -4.61985 -9.29571 -13.7817
upperneck 15.8735 -13.6436 9.51138
head 7.20367 -6.98567 4.09292
rclavicle 5.19325e-015 -3.42904e-015
rhumerus 50.5187 -2.21531 -20.3794
rradius 71.0098
rwrist -7.86057
rhand -14.1353 26.1473
rfingers 7.12502
rthumb 11.9987 -3.48875
lclavicle 5.19325e-015 -3.42904e-015
lhumerus -46.9107 26.8364 59.5189
lradius 22.0371
lwrist -14.6291
lhand -3.51705 38.7914
lfingers 7.12502
lthumb 22.2177 67.5344
rfemur -4.82199 -3.43876 33.3063
rtibia 21.3869
rfoot -13.3933 5.79395
rtoes 24.1138
lfemur -26.5826 -2.75941 -8.30836
ltibia 49.5808
lfoot -14.3017 -2.12803
ltoes -15.4233
168
root -5.24954 17.6498 1.22404 -174.328 -5.90944 -175.421
lowerback 2.95097 2.0603 1.12947
upperback -2.64321 2.80427 1.4837
thorax -4.40066 1.35508 0.712247
lowerneck -4.57871 -9.31312 -13.9205
upperneck 15.966 -13.7554 9.84961
head 7.27348 -7.03386 4.21146
rclavicle -4.13596e-014 -6.11263e-015
rhumerus 50.5394 0.252036 -20.5628
rradius 70.7851
rwrist -8.14016
rhand -15.9208 25.8007
rfingers 7.12502
rthumb 10.2765 -3.92825
lclavicle -4.13596e-014 -6.11263e-015
lhumerus -46.3635 26.2803 60.4474
lradius 22.2728
lwrist -13.6914
lhand -3.69487 38.8032
lfingers 7.12502
lthumb 22.0469 67.5665
rfemur -4.02844 -2.81583 33.3496
rtibia 20.5892
rfoot -13.2401 5.96335
rtoes 24.8737
lfemur -27.3685 -2.8404 -8.09378
ltibia 48.3839
lfoot -14.2108 -1.79386
ltoes -14.7782
169
root -5.26301 17.6716 1.10749 -174.263 -5.28239 -175.814
lowerback 2.98473 2.20191 0.765207
upperback -2.61643 2.97714 1.31093
thorax -4.40224 1.45321 0.724593
lowerneck -4.49391 -9.45613 -13.8488
upperneck 15.7108 -13.9258 9.8268
head 7.19146 -7.10808 4.17888
rclavicle -4.67548e-014 -1.23246e-014
rhumerus 50.4974 2.56651 -20.9193
rradius 70.6898
rwrist -9.73931
rhand -18.4798 26.362
rfingers 7.12502
rthumb 7.80724 -3.47381
lclavicle -4.67548e-014 -1.23246e-014
lhumerus -45.7382 25.9775 61.3501
lradius 22.5291
lwrist -13.2381
lhand -3.47839 38.7688
lfingers 7.12502
lthumb 22.2548 67.5075
rfemur -3.12439 -2.65546 32.8089
rtibia 19.6731
rfoot -13.163 6.17322
rtoes 24.4416
lfemur -28.0788 -3.19855 -8.4819
ltibia 47.0717
lfoot -14.1248 -1.50042
ltoes -14.0377
